<svg xmlns="http://www.w3.org/2000/svg" viewBox="0 0 64 64">
  <rect width="64" height="64" rx="12" fill="#0a0e1a"/>
  <circle cx="32" cy="32" r="4" fill="#fff" opacity="1"/>
  <circle cx="32" cy="32" r="8" fill="#fff" opacity="0.15"/>
  <circle cx="32" cy="32" r="12" fill="#fff" opacity="0.05"/>
  <line x1="32" y1="20" x2="32" y2="44" stroke="#fff" stroke-width="0.8" opacity="0.4"/>
  <line x1="20" y1="32" x2="44" y2="32" stroke="#fff" stroke-width="0.8" opacity="0.4"/>
  <circle cx="14" cy="12" r="1.5" fill="#fff" opacity="0.9"/>
  <circle cx="50" cy="16" r="2" fill="#fff" opacity="0.8"/>
  <circle cx="48" cy="48" r="1.2" fill="#fff" opacity="0.7"/>
  <circle cx="10" cy="50" r="1.8" fill="#fff" opacity="0.6"/>
  <circle cx="22" cy="20" r="1" fill="#fff" opacity="0.5"/>
  <circle cx="52" cy="34" r="0.8" fill="#fff" opacity="0.4"/>
  <circle cx="8" cy="30" r="0.9" fill="#fff" opacity="0.5"/>
  <circle cx="42" cy="10" r="0.7" fill="#fff" opacity="0.3"/>
  <circle cx="20" cy="52" r="1.1" fill="#fff" opacity="0.6"/>
  <circle cx="56" cy="54" r="0.8" fill="#fff" opacity="0.4"/>
  <circle cx="38" cy="22" r="0.6" fill="#fff" opacity="0.35"/>
  <circle cx="26" cy="44" r="0.7" fill="#fff" opacity="0.45"/>
  <circle cx="44" cy="40" r="0.5" fill="#fff" opacity="0.3"/>
  <circle cx="16" cy="38" r="0.6" fill="#fff" opacity="0.35"/>
</svg>
